# xmcd CD database file
# Copyright (C) 1993-1998 Ti Kan
#
# Track frame offsets:
#	150
#	20350
#	39985
#	53595
#	67935
#	75745
#	88935
#	103680
#	122860
#	140745
#	157420
#	179065
#	191600
#	210205
#
# Disc length: 2937 seconds
#
# Revision: 2
# Processed by: cddbd v1.4b41PL1 Copyright (c) Steve Scherf et al.
# Submitted via: CDValet v3.31 - Copyright (c) 1997 Greg Leichner
#
DISCID=c30b770e
DTITLE=Simone - Performance - Simone
DYEAR=1900
DGENRE=
TTITLE0=Face a Face
TTITLE1=Jura Secreta
TTITLE2=Cigarra
TTITLE3=Medo de Amar No 2
TTITLE4=Maria Maria
TTITLE5=Reis e Rainhas de Maracatu
TTITLE6=Sob Medida
TTITLE7=Cordilheira
TTITLE8=To Voltando
TTITLE9=Comecar de Novo
TTITLE10=O Que Sera
TTITLE11=Atrevida
TTITLE12=Sangrando
TTITLE13=Quatro Paredes
EXTD=
EXTT0=
EXTT1=
EXTT2=
EXTT3=
EXTT4=
EXTT5=
EXTT6=
EXTT7=
EXTT8=
EXTT9=
EXTT10=
EXTT11=
EXTT12=
EXTT13=
PLAYORDER=
